<mxfile host="app.diagrams.net" modified="2024-04-18T06:56:59.105Z" agent="Mozilla/5.0 (Windows NT 10.0; Win64; x64) AppleWebKit/537.36 (KHTML, like Gecko) Chrome/123.0.0.0 Safari/537.36" etag="s0Og7eUOOS1fgpTAANxO" version="24.2.1" type="device">
  <diagram id="C5RBs43oDa-KdzZeNtuy" name="Page-1">
    <mxGraphModel dx="1114" dy="600" grid="1" gridSize="10" guides="1" tooltips="1" connect="1" arrows="1" fold="1" page="1" pageScale="1" pageWidth="827" pageHeight="1169" math="0" shadow="0">
      <root>
        <mxCell id="WIyWlLk6GJQsqaUBKTNV-0" />
        <mxCell id="WIyWlLk6GJQsqaUBKTNV-1" parent="WIyWlLk6GJQsqaUBKTNV-0" />
        <mxCell id="WIyWlLk6GJQsqaUBKTNV-3" value="Ask input from the user" style="rounded=1;whiteSpace=wrap;html=1;fontSize=12;glass=0;strokeWidth=1;shadow=0;" parent="WIyWlLk6GJQsqaUBKTNV-1" vertex="1">
          <mxGeometry x="320" y="40" width="120" height="40" as="geometry" />
        </mxCell>
        <mxCell id="bRK5VO0spE8zNupIj2fb-0" value="" style="endArrow=classic;html=1;rounded=0;" edge="1" parent="WIyWlLk6GJQsqaUBKTNV-1">
          <mxGeometry width="50" height="50" relative="1" as="geometry">
            <mxPoint x="379.5" y="80" as="sourcePoint" />
            <mxPoint x="380" y="120" as="targetPoint" />
          </mxGeometry>
        </mxCell>
        <mxCell id="bRK5VO0spE8zNupIj2fb-1" value="1. Report&lt;div&gt;2. off&lt;/div&gt;&lt;div style=&quot;&quot;&gt;3. Drink option&lt;/div&gt;" style="text;html=1;align=left;verticalAlign=middle;whiteSpace=wrap;rounded=0;" vertex="1" parent="WIyWlLk6GJQsqaUBKTNV-1">
          <mxGeometry x="640" y="10" width="170" height="130" as="geometry" />
        </mxCell>
        <mxCell id="bRK5VO0spE8zNupIj2fb-10" value="" style="edgeStyle=orthogonalEdgeStyle;rounded=0;orthogonalLoop=1;jettySize=auto;html=1;" edge="1" parent="WIyWlLk6GJQsqaUBKTNV-1" source="bRK5VO0spE8zNupIj2fb-2">
          <mxGeometry relative="1" as="geometry">
            <mxPoint x="240" y="160" as="targetPoint" />
            <Array as="points">
              <mxPoint x="250" y="160" />
              <mxPoint x="250" y="161" />
            </Array>
          </mxGeometry>
        </mxCell>
        <mxCell id="bRK5VO0spE8zNupIj2fb-2" value="Check available resources" style="rhombus;whiteSpace=wrap;html=1;" vertex="1" parent="WIyWlLk6GJQsqaUBKTNV-1">
          <mxGeometry x="280" y="120" width="200" height="80" as="geometry" />
        </mxCell>
        <mxCell id="bRK5VO0spE8zNupIj2fb-3" value="" style="endArrow=classic;html=1;rounded=0;exitX=0.5;exitY=1;exitDx=0;exitDy=0;" edge="1" parent="WIyWlLk6GJQsqaUBKTNV-1" source="bRK5VO0spE8zNupIj2fb-2">
          <mxGeometry width="50" height="50" relative="1" as="geometry">
            <mxPoint x="390" y="310" as="sourcePoint" />
            <mxPoint x="380" y="250" as="targetPoint" />
          </mxGeometry>
        </mxCell>
        <mxCell id="bRK5VO0spE8zNupIj2fb-4" value="Yes" style="text;html=1;align=center;verticalAlign=middle;resizable=0;points=[];autosize=1;strokeColor=none;fillColor=none;" vertex="1" parent="WIyWlLk6GJQsqaUBKTNV-1">
          <mxGeometry x="376" y="208" width="40" height="30" as="geometry" />
        </mxCell>
        <mxCell id="bRK5VO0spE8zNupIj2fb-5" value="provide option to enter the coins" style="rounded=1;whiteSpace=wrap;html=1;fontSize=12;glass=0;strokeWidth=1;shadow=0;" vertex="1" parent="WIyWlLk6GJQsqaUBKTNV-1">
          <mxGeometry x="320" y="250" width="120" height="40" as="geometry" />
        </mxCell>
        <mxCell id="bRK5VO0spE8zNupIj2fb-6" value="" style="endArrow=classic;html=1;rounded=0;exitX=0.5;exitY=1;exitDx=0;exitDy=0;" edge="1" parent="WIyWlLk6GJQsqaUBKTNV-1" source="bRK5VO0spE8zNupIj2fb-5">
          <mxGeometry width="50" height="50" relative="1" as="geometry">
            <mxPoint x="690" y="230" as="sourcePoint" />
            <mxPoint x="380" y="320" as="targetPoint" />
            <Array as="points" />
          </mxGeometry>
        </mxCell>
        <mxCell id="bRK5VO0spE8zNupIj2fb-8" value="Check the coins with driink price" style="rhombus;whiteSpace=wrap;html=1;" vertex="1" parent="WIyWlLk6GJQsqaUBKTNV-1">
          <mxGeometry x="260" y="320" width="240" height="90" as="geometry" />
        </mxCell>
        <mxCell id="bRK5VO0spE8zNupIj2fb-11" value="No" style="text;html=1;align=center;verticalAlign=middle;resizable=0;points=[];autosize=1;strokeColor=none;fillColor=none;" vertex="1" parent="WIyWlLk6GJQsqaUBKTNV-1">
          <mxGeometry x="244" y="134" width="40" height="30" as="geometry" />
        </mxCell>
        <mxCell id="bRK5VO0spE8zNupIj2fb-13" value="Return the item that lacks the necessary amt" style="rounded=1;whiteSpace=wrap;html=1;" vertex="1" parent="WIyWlLk6GJQsqaUBKTNV-1">
          <mxGeometry x="120" y="130" width="120" height="60" as="geometry" />
        </mxCell>
        <mxCell id="bRK5VO0spE8zNupIj2fb-14" value="" style="endArrow=classic;html=1;rounded=0;" edge="1" parent="WIyWlLk6GJQsqaUBKTNV-1">
          <mxGeometry width="50" height="50" relative="1" as="geometry">
            <mxPoint x="380" y="410" as="sourcePoint" />
            <mxPoint x="380" y="470" as="targetPoint" />
          </mxGeometry>
        </mxCell>
        <mxCell id="bRK5VO0spE8zNupIj2fb-15" value="Yes" style="text;html=1;align=center;verticalAlign=middle;resizable=0;points=[];autosize=1;strokeColor=none;fillColor=none;" vertex="1" parent="WIyWlLk6GJQsqaUBKTNV-1">
          <mxGeometry x="380" y="425" width="40" height="30" as="geometry" />
        </mxCell>
        <mxCell id="bRK5VO0spE8zNupIj2fb-18" value="" style="edgeStyle=orthogonalEdgeStyle;rounded=0;orthogonalLoop=1;jettySize=auto;html=1;" edge="1" parent="WIyWlLk6GJQsqaUBKTNV-1" source="bRK5VO0spE8zNupIj2fb-16" target="bRK5VO0spE8zNupIj2fb-17">
          <mxGeometry relative="1" as="geometry" />
        </mxCell>
        <mxCell id="bRK5VO0spE8zNupIj2fb-16" value="Return the change and drinks welcome message" style="rounded=1;whiteSpace=wrap;html=1;" vertex="1" parent="WIyWlLk6GJQsqaUBKTNV-1">
          <mxGeometry x="280" y="470" width="200" height="60" as="geometry" />
        </mxCell>
        <mxCell id="bRK5VO0spE8zNupIj2fb-20" value="" style="edgeStyle=orthogonalEdgeStyle;rounded=0;orthogonalLoop=1;jettySize=auto;html=1;" edge="1" parent="WIyWlLk6GJQsqaUBKTNV-1" source="bRK5VO0spE8zNupIj2fb-17" target="bRK5VO0spE8zNupIj2fb-19">
          <mxGeometry relative="1" as="geometry" />
        </mxCell>
        <mxCell id="bRK5VO0spE8zNupIj2fb-17" value="Update the total amount" style="whiteSpace=wrap;html=1;rounded=1;" vertex="1" parent="WIyWlLk6GJQsqaUBKTNV-1">
          <mxGeometry x="280" y="570" width="200" height="60" as="geometry" />
        </mxCell>
        <mxCell id="bRK5VO0spE8zNupIj2fb-19" value="Report should also be updated with reduced value and increased amount" style="whiteSpace=wrap;html=1;rounded=1;" vertex="1" parent="WIyWlLk6GJQsqaUBKTNV-1">
          <mxGeometry x="280" y="670" width="200" height="60" as="geometry" />
        </mxCell>
        <mxCell id="bRK5VO0spE8zNupIj2fb-21" value="" style="endArrow=classic;html=1;rounded=0;exitX=0;exitY=0.5;exitDx=0;exitDy=0;" edge="1" parent="WIyWlLk6GJQsqaUBKTNV-1" source="bRK5VO0spE8zNupIj2fb-8">
          <mxGeometry width="50" height="50" relative="1" as="geometry">
            <mxPoint x="260" y="370" as="sourcePoint" />
            <mxPoint x="200" y="365" as="targetPoint" />
            <Array as="points">
              <mxPoint x="210" y="365" />
            </Array>
          </mxGeometry>
        </mxCell>
        <mxCell id="bRK5VO0spE8zNupIj2fb-22" value="No" style="text;html=1;align=center;verticalAlign=middle;whiteSpace=wrap;rounded=0;" vertex="1" parent="WIyWlLk6GJQsqaUBKTNV-1">
          <mxGeometry x="200" y="340" width="60" height="30" as="geometry" />
        </mxCell>
        <mxCell id="bRK5VO0spE8zNupIj2fb-23" value="Return message" style="rounded=1;whiteSpace=wrap;html=1;" vertex="1" parent="WIyWlLk6GJQsqaUBKTNV-1">
          <mxGeometry x="80" y="335" width="120" height="60" as="geometry" />
        </mxCell>
      </root>
    </mxGraphModel>
  </diagram>
</mxfile>
